# xmcd
# 
# Track frame offsets:
#     150
#     13948
#     31245
#     43902
#     56338
#     68098
#     80832
#     102457
#     127054
#     138447
#     151106
#     162884
#     183429
#     212479
#     226113
#     239612
# 
# Disc length: 3385
# 
# Revision: 2
# Processed by: cddbd v1.5.2PL0 Copyright (c) Steve Scherf et al.
# Submitted via: BonkEnc v1.0.15
# 
DISCID=d90d3710
DTITLE=Various Artist - Blues Collection
DYEAR=2004
DGENRE=Blues
TTITLE0=Various Artist - Louis Armstrong - A kiss to build a dream
TTITLE1=Various Artist - John Lee Hooker - Blues bevor sunrise
TTITLE2=Various Artist - Katie Webster - Precious lord
TTITLE3=Various Artist - Sarah Vaughan - Prelude to a kiss
TTITLE4=Various Artist - The Platters - Only you
TTITLE5=Various Artist - Dionne Warwick - Trains and boats and planes
TTITLE6=Various Artist - B.B. King - Gamblers blues
TTITLE7=Various Artist - Mahalia Jackson - I will move on up a little higher
TTITLE8=Various Artist - John Lee Hooker - Boom boom
TTITLE9=Various Artist - B.B. King - Every day I have the blues
TTITLE10=Various Artist - Ella Fitzgerald - The lady is a tramp
TTITLE11=Various Artist - The Nat Kong Cole Trio - Sweet Lorraine
TTITLE12=Various Artist - Stan Getz, Joao Gilberto - The girl from Inpanema
TTITLE13=Various Artist - Louis Armstrong - C'est si bon
TTITLE14=Various Artist - Billie Holiday and orchestra - April in Paris
TTITLE15=Various Artist - Ella Fitzgerald, Louis Armstrong, O. Peterson - I've got my love to keep me warm
EXTD=
EXTT0=
EXTT1=
EXTT2=
EXTT3=
EXTT4=
EXTT5=
EXTT6=
EXTT7=
EXTT8=
EXTT9=
EXTT10=
EXTT11=
EXTT12=
EXTT13=
EXTT14=
EXTT15=
PLAYORDER=
